<svg width="16" height="12" viewBox="0 0 16 12" fill="none" xmlns="http://www.w3.org/2000/svg">
<path d="M6.51724 1.2931C6.81719 1.00744 6.82877 0.532706 6.5431 0.232759C6.25744 -0.0671892 5.78271 -0.078768 5.48276 0.206897L6.51724 1.2931ZM0.232759 5.2069C-0.0671892 5.49256 -0.078768 5.96729 0.206897 6.26724C0.492561 6.56719 0.967294 6.57877 1.26724 6.2931L0.232759 5.2069ZM1.26724 5.2069C0.967294 4.92123 0.492561 4.93281 0.206897 5.23276C-0.078768 5.53271 -0.0671892 6.00744 0.232759 6.2931L1.26724 5.2069ZM5.48276 11.2931C5.78271 11.5788 6.25744 11.5672 6.5431 11.2672C6.82877 10.9673 6.81719 10.4926 6.51724 10.2069L5.48276 11.2931ZM0.75 5C0.335786 5 0 5.33579 0 5.75C0 6.16421 0.335786 6.5 0.75 6.5V5ZM14.75 6.5C15.1642 6.5 15.5 6.16421 15.5 5.75C15.5 5.33579 15.1642 5 14.75 5V6.5ZM5.48276 0.206897L0.232759 5.2069L1.26724 6.2931L6.51724 1.2931L5.48276 0.206897ZM0.232759 6.2931L5.48276 11.2931L6.51724 10.2069L1.26724 5.2069L0.232759 6.2931ZM0.75 6.5H14.75V5H0.75V6.5Z" fill="black"/>
</svg>
