<svg width="16" height="12" viewBox="0 0 16 12" fill="none" xmlns="http://www.w3.org/2000/svg">
<path d="M8.98276 10.2069C8.68281 10.4926 8.67123 10.9673 8.9569 11.2672C9.24256 11.5672 9.71729 11.5788 10.0172 11.2931L8.98276 10.2069ZM15.2672 6.2931C15.5672 6.00744 15.5788 5.53271 15.2931 5.23276C15.0074 4.93281 14.5327 4.92123 14.2328 5.2069L15.2672 6.2931ZM14.2328 6.2931C14.5327 6.57877 15.0074 6.56719 15.2931 6.26724C15.5788 5.96729 15.5672 5.49256 15.2672 5.2069L14.2328 6.2931ZM10.0172 0.206897C9.71729 -0.0787678 9.24256 -0.0671892 8.9569 0.232759C8.67123 0.532706 8.68281 1.00744 8.98276 1.2931L10.0172 0.206897ZM14.75 6.5C15.1642 6.5 15.5 6.16421 15.5 5.75C15.5 5.33579 15.1642 5 14.75 5V6.5ZM0.75 5C0.335787 5 0 5.33579 0 5.75C0 6.16421 0.335787 6.5 0.75 6.5V5ZM10.0172 11.2931L15.2672 6.2931L14.2328 5.2069L8.98276 10.2069L10.0172 11.2931ZM15.2672 5.2069L10.0172 0.206897L8.98276 1.2931L14.2328 6.2931L15.2672 5.2069ZM14.75 5L0.75 5V6.5L14.75 6.5V5Z" fill="black"/>
</svg>
