<svg width="50" height="50" viewBox="0 0 50 50" fill="none" xmlns="http://www.w3.org/2000/svg">
<path d="M28.2292 3.17195V3.00501C28.2292 2.22593 28.4635 1.53033 28.9323 0.918197C29.401 0.306066 30 0 30.7292 0C31.4583 0 32.1094 0.250418 32.6823 0.751252C33.2552 1.25209 33.5677 1.91987 33.6198 2.75459C33.6719 3.58932 33.4375 4.28492 32.9167 4.8414C32.3958 5.39789 31.7708 5.67613 31.0417 5.67613L30.5729 5.84307L30.7292 6.09349L30.5729 7.01169L30.2604 9.68281C30.3646 9.7941 30.4167 9.9054 30.4167 10.0167L30.1042 11.6861C30 11.9087 29.8958 12.0757 29.7917 12.187L29.6354 12.8548C29.4271 13.7451 29.2448 14.4686 29.0885 15.025C28.9323 15.5815 28.8021 16.0267 28.6979 16.3606V16.6945C28.5938 17.251 28.5156 17.6962 28.4635 18.0301C28.4115 18.3639 28.2292 18.9204 27.9167 19.6995C27.7083 20.1447 27.7083 20.8681 27.9167 21.8698L28.0729 22.0367C28.0729 22.3706 28.2031 22.7602 28.4635 23.2053C28.724 23.6505 28.8542 24.0401 28.8542 24.374C28.9583 26.5999 28.8021 28.4919 28.3854 30.0501L28.6979 31.0518C29.9479 31.7195 30.3125 32.443 29.7917 33.222L30.5729 33.5559C31.8229 34.2237 32.7083 34.808 33.2292 35.3088C33.75 35.8097 34.2708 36.3383 34.7917 36.8948C35.2083 37.0061 35.5208 37.1731 35.7292 37.3957L36.1979 37.5626C38.3854 39.1208 40.5729 41.0128 42.7604 43.2387L43.3854 43.7396V43.9065L43.2292 44.2404L43.6979 44.5743H43.8542C44.1667 44.7969 44.375 44.9082 44.4792 44.9082H44.6354C44.7396 44.9082 44.8437 44.8525 44.9479 44.7412L45.2604 44.5743C45.4688 44.3517 45.6771 44.1848 45.8854 44.0735H46.5104C46.6146 44.0735 46.6146 44.1291 46.5104 44.2404L45.8854 44.5743L45.1042 45.576H46.1979L47.2917 45.7429C47.6042 45.6316 47.8646 45.5203 48.0729 45.409L48.8542 44.9082C49.1667 44.7969 49.4792 44.9082 49.7917 45.2421H49.9479C50.0521 45.3534 50 45.5203 49.7917 45.7429L47.9167 47.5793C47.3958 48.0245 46.9271 48.3027 46.5104 48.414L44.4792 49.9165C44.375 50.0278 44.2708 50.0278 44.1667 49.9165L43.6979 49.2487L43.3854 48.581L42.9948 47.9967L42.526 47.3289L42.1354 46.828L41.8229 46.4107L41.1979 45.9098C40.9896 45.9098 40.7812 45.8542 40.5729 45.7429L38.5417 44.0735C38.2292 44.0735 37.8646 43.9065 37.4479 43.5726C35.8854 42.1258 34.8438 41.2354 34.3229 40.9015L33.3854 40.2337L31.5104 39.8998C30.8854 39.7885 30.0521 39.4546 29.0104 38.8982L27.7604 38.2304C26.9271 37.7852 26.3542 37.5626 26.0417 37.5626L25.4167 37.2287C25 37.1174 24.6875 37.0061 24.4792 36.8948L24.1667 36.5609C23.9583 36.5609 23.75 36.6166 23.5417 36.7279L20.4167 38.3973L16.5104 40.2337C15.4687 41.1241 14.4792 41.8475 13.5417 42.404L11.8229 43.2387L9.16667 45.2421C8.95833 45.4647 8.75 45.4647 8.54167 45.2421L8.22917 45.576C7.91667 45.6873 7.70833 45.7429 7.60417 45.7429L6.97917 46.0768V46.4107H6.66667L6.35417 46.9115C6.14583 47.3567 5.9375 47.6071 5.72917 47.6628C5.52083 47.7184 5.39063 47.8019 5.33854 47.9132C5.28646 48.0245 5.23437 48.108 5.18229 48.1636L4.86979 48.4975L4.40104 48.8314L3.69792 48.7479L2.76042 48.9149L2.13542 49.0818C1.61458 49.1931 1.19792 49.1096 0.885417 48.8314C0.572917 48.5531 0.3125 48.1358 0.104167 47.5793C-0.104167 47.2454 2.98023e-08 46.9672 0.416667 46.7446L0.572917 46.5776C0.677083 46.4663 0.833333 46.4107 1.04167 46.4107H1.97917L3.22917 45.9098L3.85417 45.7429C3.85417 45.5203 3.90625 45.3534 4.01042 45.2421C4.11458 45.1308 4.27083 45.0751 4.47917 45.0751V44.9082C4.375 44.6856 4.32292 44.463 4.32292 44.2404C4.21875 44.0178 4.19271 43.8509 4.24479 43.7396C4.29687 43.6283 4.34896 43.5726 4.40104 43.5726H4.47917L4.63542 44.0735C4.73958 44.6299 4.89583 44.7969 5.10417 44.5743L5.26042 44.2404C5.36458 44.0178 5.52083 43.9065 5.72917 43.9065L6.04167 44.2404L6.35417 43.9065L6.19792 43.7396C6.19792 43.6283 6.25 43.5726 6.35417 43.5726L6.97917 42.9048C7.5 42.2371 8.125 41.6249 8.85417 41.0684C10.3125 39.8442 11.875 38.8982 13.5417 38.2304C14.0625 37.6739 14.6354 37.3957 15.2604 37.3957C15.6771 36.6166 16.3021 35.7819 17.1354 34.8915C17.8646 34.335 18.3854 33.9455 18.6979 33.7229C18.9063 33.2777 19.1667 33.0551 19.4792 33.0551H19.6354L19.9479 32.7212C20.1562 32.6099 20.3125 32.4986 20.4167 32.3873V31.5526C20.4167 30.9961 20.4687 30.5509 20.5729 30.217C20.6771 29.8831 20.9375 29.7162 21.3542 29.7162L21.9792 29.0484C21.7708 28.6032 21.6667 28.1024 21.6667 27.5459H21.5104C21.3021 27.212 21.1979 26.8781 21.1979 26.5442C20.8854 25.9878 20.6771 25.5426 20.5729 25.2087H20.1042C20 25.5426 19.7396 25.7652 19.3229 25.8765L19.1667 26.2103C18.75 26.9894 18.3854 27.5737 18.0729 27.9633C17.7604 28.3528 17.1875 28.8258 16.3542 29.3823C15.8333 29.9388 15.4688 30.5509 15.2604 31.2187C15.1563 31.5526 15.1563 31.8865 15.2604 32.2204L15.1042 32.5543H15.2604C15.2604 32.7769 15.3125 32.8881 15.4167 32.8881H15.5729C15.7813 32.9994 15.8854 33.1386 15.8854 33.3055C15.8854 33.4725 15.7292 33.5281 15.4167 33.4725C15.1042 33.4168 14.8698 33.3055 14.7135 33.1386C14.5573 32.9716 14.4271 32.8881 14.3229 32.8881L13.8542 33.389C13.6458 33.7229 13.4375 33.862 13.2292 33.8063C13.0208 33.7507 12.9687 33.6672 13.0729 33.5559L13.2292 33.389C13.3333 33.1664 13.3333 33.0551 13.2292 33.0551L11.9792 33.389C11.875 33.5003 11.7448 33.5003 11.5885 33.389C11.4323 33.2777 11.4583 33.1664 11.6667 33.0551L12.4479 32.7212C12.4479 32.6099 12.3958 32.5543 12.2917 32.5543C11.875 32.7769 11.4583 32.8325 11.0417 32.7212L10.2604 32.5543L10.1042 32.3873C10.1042 32.276 10.1562 32.2204 10.2604 32.2204C10.6771 32.3317 11.1979 32.276 11.8229 32.0534L12.9167 31.5526L14.1667 30.0501L14.3229 29.7162C14.7396 28.8258 15.1823 28.0189 15.651 27.2955C16.1198 26.5721 16.6146 25.9878 17.1354 25.5426L17.2917 24.8748C17.5 24.4296 17.7083 24.0401 17.9167 23.7062C18.125 23.3723 18.3854 22.9271 18.6979 22.3706L19.1667 21.7028C19.5833 21.0351 20.0521 20.7012 20.5729 20.7012L21.0417 20.2003C21.1458 20.089 21.1979 19.9221 21.1979 19.6995L21.5104 19.3656L21.3542 19.1987C20.7292 18.6422 20.4167 18.1413 20.4167 17.6962C20.3125 16.9171 20.5469 16.2493 21.1198 15.6928C21.6927 15.1363 22.2656 14.8859 22.8385 14.9416C23.4115 14.9972 23.8542 15.192 24.1667 15.5259L24.4792 15.8598C24.5833 15.8598 24.6354 15.9154 24.6354 16.0267L25.2604 16.3606V16.8614C25.4688 17.084 25.5729 17.251 25.5729 17.3623C25.7812 17.0284 26.0938 16.6388 26.5104 16.1937L27.2917 13.5225C27.2917 13.0773 27.3958 12.6322 27.6042 12.187L27.9167 11.6861V11.3523L28.3854 9.34891H28.6979L29.1667 7.34558C29.2708 7.01169 29.2708 6.62215 29.1667 6.17696L28.5417 4.50751L28.2292 3.17195Z" fill="#111111"/>
</svg>
