<svg width="22" height="22" viewBox="0 0 22 22" fill="none" xmlns="http://www.w3.org/2000/svg">
<path d="M6.05452 6.05452V3.32725C6.05452 2.60393 6.34186 1.91024 6.85332 1.39878C7.36478 0.887313 8.05848 0.599976 8.78179 0.599976H12.4182C13.1415 0.599976 13.8352 0.887313 14.3466 1.39878C14.8581 1.91024 15.1454 2.60393 15.1454 3.32725C15.1454 4.05057 14.8581 4.74426 14.3466 5.25572C13.8352 5.76718 13.1415 6.05452 12.4182 6.05452H0.599976V16.0545C0.599976 17.2601 1.07887 18.4162 1.93131 19.2686C2.78375 20.1211 3.9399 20.6 5.14543 20.6H16.0545C17.2601 20.6 18.4162 20.1211 19.2686 19.2686C20.1211 18.4162 20.6 17.2601 20.6 16.0545V6.05452H17.2666" stroke="#111111" stroke-width="1.2"/>
</svg>
