<svg width="21" height="19" viewBox="0 0 21 19" fill="none" xmlns="http://www.w3.org/2000/svg">
<path d="M15.2199 0.599993C16.551 0.599993 17.8017 1.13607 18.7427 2.10745C19.6759 3.07354 20.2 4.38277 20.2 5.74777C20.2 7.11277 19.6759 8.422 18.7427 9.3881L10.4002 18.01L2.05675 9.3881C1.12388 8.42205 0.599976 7.11304 0.599976 5.74829C0.599976 4.38354 1.12388 3.07454 2.05675 2.10848C2.51824 1.62882 3.06722 1.24851 3.67191 0.98958C4.2766 0.730646 4.92498 0.598229 5.57953 0.599993C6.91062 0.599993 8.16129 1.13607 9.10231 2.10745L9.86638 2.89701L10.4002 3.44867L10.9331 2.89701L11.6971 2.10745C12.1588 1.62811 12.7079 1.24809 13.3125 0.989341C13.9172 0.730597 14.5655 0.598265 15.2199 0.599993Z" stroke="#111111" stroke-width="1.2"/>
</svg>
